<svg xmlns="http://www.w3.org/2000/svg" width="317" height="73" viewBox="0 0 317 73">
  <path d="M149.74244.696703297C151.672308.982351648 153.602176 1.19136264 155.497209 1.65815385 160.729743 2.9126761 165.565333 5.45621037 169.563648 9.05714286 175.464725 14.3938901 178.620791 21.2076484 179.833055 28.9271209 181.038229 35.7620659 180.598802 42.7857307 178.551121 49.4171648 175.304484 59.5402637 168.748505 66.5490989 158.68811 70.1510549 154.710431 71.5395763 150.520379 72.2210199 146.307692 72.1645275 137.891516 72.12737 129.475341 72.12737 121.059165 72.1645275 120.313692 72.1645275 119.951407 72.0251868 119.951407 71.1682418 119.951407 47.6754066 119.951407 24.1848938 119.951407.696703297L149.74244.696703297zM131.558484 36.4027473C131.558484 44.589011 131.558484 52.7822418 131.558484 60.9685055 131.558484 61.7557802 131.75356 62.0344615 132.582637 62.0205275 136.205495 61.9787253 139.821385 62.0205275 143.444242 62.0205275 145.558018 62.0974014 147.674491 61.9925102 149.770308 61.707011 157.496747 60.3972088 163.119143 56.2518242 166.212505 49.0409451 169.305868 41.8300659 169.473077 34.1454286 167.299363 26.5513626 164.512549 16.9438242 156.347187 11.0009451 146.447033 10.8128352 141.932396 10.7292308 137.38989 10.8128352 132.903121 10.8128352 131.572418 10.8128352 131.572418 10.8128352 131.572418 12.1087033L131.558484 36.4027473zM316.784022 72.0948571C316.456571 72.0948571 316.122154 72.1505934 315.787736 72.1505934L269.059846 72.1505934C267.729143 72.1505934 267.729143 72.1505934 267.729143 70.8338242L267.729143 1.77659341C267.729143 1.41430769 267.770945 1.07989011 267.791846.696703297L315.947978.696703297 316.010681 9.5518022C316.010681 10.784967 316.010681 10.784967 314.763582 10.784967 303.258689 10.784967 291.753795 10.784967 280.248901 10.784967 279.391956 10.784967 279.169011 11.0427473 279.169011 11.8718242 279.203846 17.8077363 279.169011 23.7157802 279.169011 29.6725934 279.169011 30.9127253 279.169011 30.9196923 280.395209 30.9196923L310.032967 30.9196923C311.140725 30.9196923 311.161626 30.9196923 311.161626 32.0344176 311.161626 34.4032088 311.161626 36.772 311.161626 39.1338242 311.161626 40.3948571 311.161626 40.3948571 309.928462 40.3948571L280.311604 40.3948571C279.196879 40.3948571 279.189912 40.3948571 279.189912 41.4956484L279.189912 60.870967C279.189912 61.9996264 279.189912 62.0065934 280.353407 62.0065934L315.536923 62.0065934C315.954945 62.0065934 316.372967 62.0065934 316.784022 62.0623297L316.784022 72.0948571zM202.580418.696703297C202.580418 13.098022 202.580418 25.4923736 202.580418 37.8936923 202.526343 42.1376408 203.234265 46.3568553 204.670527 50.3507473 206.579495 55.4088132 209.812198 59.2685495 214.988703 61.1914505 217.760432 62.1748818 220.715131 62.5341085 223.641758 62.2434725 226.264385 62.1231746 228.825385 61.4084768 231.131319 60.1533626 234.896198 57.9414472 237.747405 54.4577373 239.171275 50.3298462 240.496649 46.7116612 241.203233 42.8961085 241.261385 39.0432527 241.560967 26.6767692 241.317121 14.3033187 241.393758 1.93683516 241.393758 1.51881319 241.393758 1.10079121 241.393758.682769231L252.903297.682769231C252.903297 1.04505495 252.952066 1.37947253 252.952066 1.76265934 252.952066 13.4394066 252.952066 25.1138315 252.952066 36.7859341 252.952066 43.2722418 252.14389 49.6401099 249.552154 55.6456923 245.413736 65.2114286 238.133187 70.8198901 227.801077 72.282967 222.752835 73.0827397 217.595489 72.8624213 212.633846 71.635033 205.555015 69.8890009 199.529659 65.260719 196.017473 58.8714286 193.230659 53.9945055 191.990527 48.6438242 191.342593 43.1259341 191.052394 40.1883159 190.936074 37.2361134 190.994242 34.2847692 190.994242 23.4998022 190.994242 12.7171575 190.994242 1.93683516 190.994242 1.51881319 190.994242 1.10079121 190.994242.682769231L202.580418.696703297zM12.1296044.696703297C12.1296044 1.14259341 12.1296044 1.58848352 12.1296044 2.03437363 12.1296044 21.5931575 12.1296044 41.1542637 12.1296044 60.7176923 12.1296044 62.0065934 12.1296044 62.0065934 13.3906374 62.0065934L49.2011868 62.0065934C50.4482857 62.0065934 50.4552527 62.0065934 50.4552527 63.2467253 50.4552527 65.8663297 50.4552527 68.4859341 50.4552527 71.1055385 50.4552527 71.8858462 50.2392747 72.1714945 49.4171648 72.1646515 33.5044615 72.1646515 17.5940806 72.1646515 1.68602198 72.1646515.919648352 72.1646515.682769231 71.9276484.682769231 71.1612747.696703297 65.0024176.696703297 58.8435604.696703297 52.6916703L.696703297 1.9438022C.696703297 1.53274725.745472527 1.11472527.759406593.696703297L12.1296044.696703297zM107.773033.696703297C107.773033 3.70646154 107.773033 6.70925275 107.773033 9.75384615 107.773033 10.5968571 107.501319 10.8407033 106.658308 10.8407033 91.2611648 10.8128352 75.864022 10.8128352 60.4668791 10.8407033 59.6238681 10.8407033 59.3591209 10.5968571 59.3730549 9.74687912 59.4287912 6.74408791 59.4218242 3.73432967 59.4357582.731538462L107.773033.696703297zM59.4009231 46.1635604L59.4009231 21.5072308C59.4009231 20.2392308 59.4009231 20.2322637 60.6271209 20.2322637L106.525934 20.2322637C107.745165 20.2322637 107.766066 20.2322637 107.773033 21.5141978L107.773033 29.1221978C107.773033 30.5156044 107.773033 30.5156044 106.435363 30.5156044L72.2969011 30.5156044C70.9522637 30.5156044 70.9522637 30.5156044 70.9522637 31.8323736L70.9522637 39.3567692C70.9522637 40.6596044 70.9522637 40.6596044 72.2272308 40.6596044L101.405165 40.6596044C102.798571 40.6596044 102.798571 40.6596044 102.798571 42.053011L102.798571 49.1593846C102.798571 50.2741099 102.798571 50.2810769 101.683846 50.2810769L72.2550989 50.2810769C70.9801319 50.2810769 70.9801319 50.2810769 70.9801319 51.5769451L70.9801319 60.7734286C70.9801319 62.0414286 70.9801319 62.0414286 72.282967 62.0414286L107.396813 62.0414286C108.643912 62.0414286 108.650879 62.0414286 108.650879 63.2745934L108.650879 71.0498022C108.650879 72.1784615 108.650879 72.1854286 107.550088 72.1854286 91.8603297 72.1854286 76.1705714 72.1854286 60.4808132 72.1854286 59.6378022 72.1854286 59.386989 71.9415824 59.386989 71.0916044 59.4148571 62.772967 59.4009231 54.4682637 59.4009231 46.1635604z" transform="translate(0 -.154)"/>
</svg>
