<svg xmlns="http://www.w3.org/2000/svg" width="24" height="22" viewBox="0 0 24 22">
  <g fill="none" transform="translate(0 -9)">
    <path fill="#000" d="M1.58558559,3.17715787 L22.4144144,3.17715787 C23.3153153,3.17715787 24,2.50200767 24,1.61365215 C24,0.760830843 23.3153153,0.0856806449 22.4144144,0.0856806449 L1.58558559,0.0856806449 C0.684684685,0.0856806449 0,0.760830843 0,1.61365215 C0,2.50200767 0.684684685,3.17715787 1.58558559,3.17715787 Z M1.58558559,9.39564653 L22.4144144,9.39564653 C23.3153153,9.39564653 24,8.72049633 24,7.83214081 C24,6.97931951 23.3153153,6.30416931 22.4144144,6.30416931 L1.58558559,6.30416931 C0.684684685,6.30416931 0,6.97931951 0,7.83214081 C0,8.72049633 0.684684685,9.39564653 1.58558559,9.39564653 Z M1.58558559,15.6141352 L22.4144144,15.6141352 C23.3153153,15.6141352 24,14.938985 24,14.0861637 C24,13.1978082 23.3153153,12.522658 22.4144144,12.522658 L1.58558559,12.522658 C0.684684685,12.522658 0,13.1978082 0,14.0861637 C0,14.938985 0.684684685,15.6141352 1.58558559,15.6141352 Z M1.58558559,21.8326239 L22.4144144,21.8326239 C23.3153153,21.8326239 24,21.1574737 24,20.3046524 C24,19.4162968 23.3153153,18.7411466 22.4144144,18.7411466 L1.58558559,18.7411466 C0.684684685,18.7411466 0,19.4162968 0,20.3046524 C0,21.1574737 0.684684685,21.8326239 1.58558559,21.8326239 Z" transform="translate(0 9)"/>
    <rect width="24" height="39"/>
  </g>
</svg>
