<svg xmlns="http://www.w3.org/2000/svg" viewBox="0 0 453.69 103.43"><title>Logo_LEDUE</title><g id="Layer_2" data-name="Layer 2"><g id="Layer_1-2" data-name="Layer 1"><path d="M213.93,0c2.77.41,5.54.71,8.26,1.38A46.3,46.3,0,0,1,242.38,12c8.47,7.66,13,17.44,14.74,28.52a62.75,62.75,0,0,1-1.84,29.41c-4.66,14.53-14.07,24.59-28.51,29.76A51.81,51.81,0,0,1,209,102.58q-18.12-.08-36.24,0c-1.07,0-1.59-.2-1.59-1.43q0-50.58,0-101.15Zm-26.1,51.25c0,11.75,0,23.51,0,35.26,0,1.13.28,1.53,1.47,1.51,5.2-.06,10.39,0,15.59,0a53,53,0,0,0,9.08-.45c11.09-1.88,19.16-7.83,23.6-18.18s4.68-21.38,1.56-32.28c-4-13.79-15.72-22.32-29.93-22.59-6.48-.12-13,0-19.44,0-1.91,0-1.91,0-1.91,1.86Z"/><path d="M453.69,102.48c-.47,0-.95.08-1.43.08H385.19c-1.91,0-1.91,0-1.91-1.89V1.55c0-.52.06-1,.09-1.55h69.12l.09,12.71c0,1.77,0,1.77-1.79,1.77q-24.77,0-49.54,0c-1.23,0-1.55.37-1.55,1.56.05,8.52,0,17,0,25.55,0,1.78,0,1.79,1.76,1.79H444c1.59,0,1.62,0,1.62,1.6,0,3.4,0,6.8,0,10.19,0,1.81,0,1.81-1.77,1.81H401.34c-1.6,0-1.61,0-1.61,1.58V86.37c0,1.62,0,1.63,1.67,1.63h50.5c.6,0,1.2,0,1.79.08Z"/><path d="M289.77,0c0,17.8,0,35.59,0,53.39a50.92,50.92,0,0,0,3,17.88c2.74,7.26,7.38,12.8,14.81,15.56A28.67,28.67,0,0,0,320,88.34a24.87,24.87,0,0,0,10.75-3,26.3,26.3,0,0,0,11.54-14.1,49.26,49.26,0,0,0,3-16.2c.43-17.75.08-35.51.19-53.26,0-.6,0-1.2,0-1.8H362c0,.52.07,1,.07,1.55q0,25.14,0,50.27c0,9.31-1.16,18.45-4.88,27.07-5.94,13.73-16.39,21.78-31.22,23.88a54.89,54.89,0,0,1-21.77-.93,37.45,37.45,0,0,1-23.85-18.32c-4-7-5.78-14.68-6.71-22.6a107.53,107.53,0,0,1-.5-12.69q0-23.22,0-46.43c0-.6,0-1.2,0-1.8Z"/><path d="M16.41,0c0,.64,0,1.28,0,1.92q0,42.11,0,84.23c0,1.85,0,1.85,1.81,1.85H69.62c1.79,0,1.8,0,1.8,1.78,0,3.76,0,7.52,0,11.28,0,1.12-.31,1.53-1.49,1.52q-34.26,0-68.51,0c-1.1,0-1.44-.34-1.44-1.44C0,92.3,0,83.46,0,74.63V1.79C0,1.2.07.6.09,0Z"/><path d="M153.69,0c0,4.32,0,8.63,0,13,0,1.21-.39,1.56-1.6,1.56q-33.15-.06-66.3,0c-1.21,0-1.59-.35-1.57-1.57.08-4.31.07-8.63.09-12.94Z"/><path d="M84.26,65.26V29.87c0-1.82,0-1.83,1.76-1.83H151.9c1.75,0,1.78,0,1.79,1.84V40.8c0,2,0,2-1.92,2h-49c-1.93,0-1.93,0-1.93,1.89v10.8c0,1.87,0,1.87,1.83,1.87h41.88c2,0,2,0,2,2v10.2c0,1.6,0,1.61-1.6,1.61H102.71c-1.83,0-1.83,0-1.83,1.86v13.2c0,1.82,0,1.82,1.87,1.82h50.4c1.79,0,1.8,0,1.8,1.77v11.16c0,1.62,0,1.63-1.58,1.63q-33.78,0-67.56,0c-1.21,0-1.57-.35-1.57-1.57C84.28,89.1,84.26,77.18,84.26,65.26Z"/></g></g></svg>